# xmcd
#
# Track frame offsets:
#	150
#	14645
#	28485
#	41957
#	55479
#	67376
#	81607
#	94263
#	108017
#	131856
#	149800
#	164407
#	173431
#	191794
#	203881
#
# Disc length: 2909 seconds
#
# Revision: 1
# Processed by: cddbd v1.5.2PL0 Copyright (c) Steve Scherf et al.
# Submitted via: audiograbber 1.83.01
#
DISCID=f50b5b0f
DTITLE=Ray Charles and Count Basie - Count Basie
DYEAR=2000
DGENRE=Blues
TTITLE0=Moonlight serenade
TTITLE1=And the angels sing
TTITLE2=Bolero at the Savoy
TTITLE3=Jumpin' at the woodside
TTITLE4=Hollywood jump
TTITLE5=9.20 special
TTITLE6=Avenue C
TTITLE7=Blue Lou
TTITLE8=Buggle call rag
TTITLE9=Darn that dream
TTITLE10=Lady be good
TTITLE11=I'm gonna sit right down and write myself a letter
TTITLE12=One o'clock jump
TTITLE13=Sent for you yesterday
TTITLE14=I left my baby
EXTD=alte Aufnahmen-Compilation
EXTT0=
EXTT1=
EXTT2=
EXTT3=
EXTT4=
EXTT5=
EXTT6=
EXTT7=
EXTT8=
EXTT9=
EXTT10=
EXTT11=
EXTT12=
EXTT13=
EXTT14=
PLAYORDER=
